<svg xmlns="http://www.w3.org/2000/svg" viewBox="0 0 64 64">
  <defs>
    <linearGradient id="liquid" x1="0" y1="0" x2="0" y2="1">
      <stop offset="0%" stop-color="#c77dff"/>
      <stop offset="100%" stop-color="#7b2ff7"/>
    </linearGradient>
    <linearGradient id="glass" x1="0" y1="0" x2="1" y2="0">
      <stop offset="0%" stop-color="rgba(255,255,255,0.3)"/>
      <stop offset="100%" stop-color="rgba(255,255,255,0.05)"/>
    </linearGradient>
    <linearGradient id="glow" x1="0" y1="0" x2="0" y2="1">
      <stop offset="0%" stop-color="#e0aaff"/>
      <stop offset="100%" stop-color="#9d4edd"/>
    </linearGradient>
  </defs>
  <!-- Outer glow -->
  <ellipse cx="32" cy="44" rx="18" ry="6" fill="#7b2ff7" opacity="0.3"/>
  <!-- Flask body -->
  <path d="M18 30 C18 48, 18 54, 32 56 C46 54, 46 48, 46 30 L42 30 L42 26 C42 24, 38 22, 38 18 L38 10 L26 10 L26 18 C26 22, 22 24, 22 26 L22 30 Z" fill="#1a1030" stroke="#c9a84c" stroke-width="1.5"/>
  <!-- Liquid fill -->
  <path d="M20 34 C20 48, 20 52, 32 54 C44 52, 44 48, 44 34 C38 36, 26 32, 20 34 Z" fill="url(#liquid)"/>
  <!-- Liquid surface wobble -->
  <path d="M20 34 C26 32, 38 36, 44 34 C38 37, 26 31, 20 34 Z" fill="#e0aaff" opacity="0.4"/>
  <!-- Glass shine -->
  <path d="M24 32 C24 28, 24 26, 26 22 L26 18 L28 18 L28 22 C28 26, 22 28, 22 34 C22 40, 22 48, 30 52 C24 50, 20 44, 20 34 Z" fill="white" opacity="0.15"/>
  <!-- Cork -->
  <rect x="25" y="7" width="14" height="4" rx="1.5" fill="#c9a84c"/>
  <rect x="26" y="8" width="12" height="1" rx="0.5" fill="#a8882a" opacity="0.5"/>
  <!-- Bubbles -->
  <circle cx="30" cy="44" r="1.5" fill="#e0aaff" opacity="0.6"/>
  <circle cx="36" cy="40" r="1" fill="#e0aaff" opacity="0.5"/>
  <circle cx="28" cy="38" r="0.8" fill="#e0aaff" opacity="0.4"/>
  <!-- Sparkles -->
  <circle cx="14" cy="20" r="1" fill="#c9a84c" opacity="0.8"/>
  <circle cx="50" cy="16" r="0.8" fill="#c9a84c" opacity="0.6"/>
  <circle cx="48" cy="38" r="0.7" fill="#c9a84c" opacity="0.5"/>
</svg>
